<mxfile host="app.diagrams.net" modified="2024-04-01T12:01:52.948Z" agent="Mozilla/5.0 (X11; Linux x86_64) AppleWebKit/537.36 (KHTML, like Gecko) Chrome/122.0.0.0 Safari/537.36" version="24.2.1" etag="rmhgn2axZLqUq9_FpYhv" type="github">
  <diagram name="第 1 页" id="UDeRGtq3U5ox7HXBpOFV">
    <mxGraphModel>
      <root>
        <mxCell id="0" />
        <mxCell id="1" parent="0" />
      </root>
    </mxGraphModel>
  </diagram>
</mxfile>
